<?xml version="1.0" standalone="no"?>
<!DOCTYPE svg PUBLIC "-//W3C//DTD SVG 20010904//EN"
 "http://www.w3.org/TR/2001/REC-SVG-20010904/DTD/svg10.dtd">
<svg version="1.0" xmlns="http://www.w3.org/2000/svg"
 width="500.000000pt" height="500.000000pt" viewBox="0 0 500.000000 500.000000"
 preserveAspectRatio="xMidYMid meet">
<metadata>
Created by potrace 1.14, written by Peter Selinger 2001-2017
</metadata>
<g transform="translate(0.000000,500.000000) scale(0.100000,-0.100000)"
fill="#000000" stroke="none">
<path d="M0 2500 l0 -2500 2500 0 2500 0 0 2500 0 2500 -2500 0 -2500 0 0
-2500z m4757 1584 c26 -89 11 -220 -37 -314 -27 -54 -124 -151 -168 -169 -18
-8 -32 -16 -32 -20 0 -3 44 -113 99 -243 l98 -237 -464 -558 c-255 -307 -474
-566 -486 -575 -23 -18 -2778 -1029 -2800 -1027 -6 0 -158 121 -336 267 l-325
267 -98 239 c-55 131 -95 242 -91 247 4 4 592 415 1307 913 907 633 1306 906
1324 906 28 0 1246 -136 1302 -146 l34 -6 -46 50 c-25 27 -55 67 -67 90 l-20
40 30 11 c55 19 152 24 214 11 112 -23 214 -93 278 -190 16 -25 26 -36 22 -25
-4 11 -10 59 -13 106 -8 161 60 294 197 380 25 16 50 28 56 26 5 -2 15 -21 22
-43z"/>
</g>
</svg>
